{"title":"Total Recall 2012 DVD9rip English Klam","uid":7820695,"size":1996409656,"categoryP":"video","categoryS":"movies","magnet":"?xt=urn:btih:36d4031d54859b486b24fbf8d9db8cf27bb3bc91&amp;dn=Total+Recall+2012+DVD9rip+English+Klam&amp;tr=udp%3A%2F%2Ftracker.openbittorrent.com%3A80&amp;tr=udp%3A%2F%2Fopen.demonii.com%3A1337&amp;tr=udp%3A%2F%2Ftracker.coppersurfer.tk%3A6969&amp;tr=udp%3A%2F%2Fexodus.desync.com%3A6969","seeders":0,"leechers":1,"uploader":"Klambake","files":-1,"time":1352814160,"description":"With: Colin Farrell, Kate Beckinsale and Jessica Biel\n\nWelkom bij Rekall, het bedrijf dat dromen tot werkelijkheid kan brengen. Voor de fabrieksmedewerker Douglas Quaid (Colin Farrell) klinkt deze trip als de perfecte vakantie om aan zijn frustrerende leven te ontkomen, ook al heeft hij een prachtige vrouw (Kate Beckinsale). Echte herinneringen van het leven als een super spion is net wat hij nodig heeft. Maar als de procedure goed fout gaat, wordt Quaid een opgejaagd man. Hij wordt achtervolgd door de politie, geleid door Chancellor Cohaagen (Bryan Cranston) en besluit samen te werken met een vrouwelijke rebel vechter (Jessica Biel) om Cohaagen te stoppen. Het is niet meer duidelijk wat fantasie en werkelijkheid is en Quaid ontdekt zijn echte identiteit, liefde en lot.\n\nA factory worker, Douglas Quaid, begins to suspect that he is a spy after visiting Rekall - a company that provides its clients with implanted fake memories of a life they would like to have led - goes wrong and he finds himself on the run. \n &lt;a href=&quot;\nhttp://www.imdb.com/title/tt1386703&quot; rel=&quot;nofollow&quot; target=&quot;_NEW&quot;&gt;\nhttp://www.imdb.com/title/tt1386703&lt;/a&gt;\n\n------------------------ Dutch Friends ------------------------\n---------------------------------------------------------------\n- Bezoek ook eens mijn vrienden op: &lt;a href=&quot; http://www.Film-Test.nl&quot; rel=&quot;nofollow&quot; target=&quot;_NEW&quot;&gt; http://www.Film-Test.nl&lt;/a&gt; --\n----- voor mijn Nederlandse Sync. ondertitels ---- en meer ----\n------- http://www.Film-Test.nl ---- Over Films en meer -------\n---------------------------------------------------------------\n\nGeneral:\n\nComplete name                    : Total RecallTotal Recall.avi\nFormat                           : AVI\nFormat/Info                      : Audio Video Interleave\nFile size                        : 1.86 GiB\nDuration                         : 1h 53mn\nOverall bit rate                 : 2 347 Kbps\n\nVideo:\n\nFormat                           : MPEG-4 Visual\nFormat profile                   : Simple@L3\nFormat settings, BVOP            : No\nFormat settings, QPel            : No\nFormat settings, GMC             : No warppoints\nFormat settings, Matrix          : Default (H.263)\nCodec ID                         : XVID\nCodec ID/Hint                    : XviD\nDuration                         : 1h 53mn\nBit rate                         : 1 888 Kbps\nWidth                            : 720 pixels\nHeight                           : 304 pixels\nDisplay aspect ratio             : 2.35:1\nFrame rate                       : 25.000 fps\nColor space                      : YUV\nChroma subsampling               : 4:2:0\nBit depth                        : 8 bits\nScan type                        : Progressive\nCompression mode                 : Lossy\nBits/(Pixel*Frame)               : 0.345\nStream size                      : 1.50 GiB (80%)\nWriting library                  : XviD 1.1.2 (UTC 2006-11-01)\n\nAudio:\n\nFormat                           : AC-3\nFormat/Info                      : Audio Coding 3\nMode extension                   : CM (complete main)\nCodec ID                         : 2000\nDuration                         : 1h 53mn\nBit rate mode                    : Constant\nBit rate                         : 448 Kbps\nChannel(s)                       : 6 channels\nChannel positions                : Front: L C R, Side: L R, LFE\nSampling rate                    : 48.0 KHz\nBit depth                        : 16 bits\nCompression mode                 : Lossy\nStream size                      : 363 MiB (19%)\nAlignment                        : Aligned on interleaves\nInterleave, duration             : 32 ms (0.80 video frame)\nInterleave, preload duration     : 64 ms","torrent":{"xt":"urn:btih:36d4031d54859b486b24fbf8d9db8cf27bb3bc91","amp;dn":"Total+Recall+2012+DVD9rip+English+Klam","amp;tr":["udp%3A%2F%2Ftracker.openbittorrent.com%3A80","udp%3A%2F%2Fopen.demonii.com%3A1337","udp%3A%2F%2Ftracker.coppersurfer.tk%3A6969","udp%3A%2F%2Fexodus.desync.com%3A6969"],"infoHash":"36d4031d54859b486b24fbf8d9db8cf27bb3bc91","infoHashBuffer":{"type":"Buffer","data":[54,212,3,29,84,133,155,72,107,36,251,248,217,219,140,242,123,179,188,145]},"announce":[],"urlList":[]}}